#!OML:ASF X:\für Bonn\!DataBase\2005_08_10_Bjorn_Final\c3d\bjorn.ASF
:FULLY-SPECIFIED
:DEGREES
113
root -1.30689 15.723 18.842 -176.7 14.6458 -543.493
lowerback 48.6638 -11.4357 5.80731
upperback 24.4887 0.733879 5.30813
thorax 7.0491 4.4405 3.39013
lowerneck 5.12805 -9.57667 12.6662
upperneck -4.34148 -11.5705 6.95189
head -2.615 -6.23024 0.623379
rclavicle -1.20861e-013 -4.11484e-014
rhumerus 20.0334 -19.1498 -65.3643
rradius 23.1617
rwrist 0.908599
rhand -11.0663 8.15397
rfingers 7.12502
rthumb 14.9566 -21.286
lclavicle -1.20861e-013 -4.11484e-014
lhumerus 3.72749 -16.4319 75.4298
lradius 75.6308
lwrist -3.45182
lhand -26.6867 -372.949
lfingers 7.12502
lthumb -0.117491 17.0307
rfemur -58.0255 -12.4806 6.65308
rtibia 75.8537
rfoot -16.7141 15.9774
rtoes -22.1733
lfemur -50.3309 11.3402 -20.9092
ltibia 83.339
lfoot -30.4298 18.7357
ltoes -22.2482
114
root -1.31043 15.5969 18.8291 -176.764 15.0932 -543.463
lowerback 48.7833 -11.5922 6.03215
upperback 24.4695 0.662186 5.60932
thorax 7.01631 4.38297 3.64018
lowerneck 5.03106 -9.62686 12.7006
upperneck -4.24994 -11.6802 6.65457
head -2.59091 -6.27132 0.521237
rclavicle -1.74931e-013 5.23798e-014
rhumerus 20.75 -19.824 -65.187
rradius 22.8052
rwrist 1.09381
rhand -10.975 7.80787
rfingers 7.12502
rthumb 15.0445 -21.6255
lclavicle -1.74931e-013 5.23798e-014
lhumerus 3.64565 -16.2708 75.4619
lradius 75.963
lwrist -2.86279
lhand -27.172 -372.311
lfingers 7.12502
lthumb -0.58625 17.6676
rfemur -58.9421 -12.5698 6.73571
rtibia 77.1676
rfoot -17.0133 16.5205
rtoes -22.0956
lfemur -51.0178 11.8731 -20.852
ltibia 84.8186
lfoot -30.7629 18.7135
ltoes -22.9376
115
root -1.31366 15.4693 18.8166 -176.828 15.5407 -543.435
lowerback 48.8797 -11.7486 6.31748
upperback 24.4353 0.606659 5.85283
thorax 6.9729 4.34624 3.79523
lowerneck 4.88491 -9.69674 12.8982
upperneck -4.11682 -11.8121 6.35875
head -2.55623 -6.32229 0.392518
rclavicle 7.31528e-014 1.21259e-014
rhumerus 21.4163 -20.5968 -65.0683
rradius 22.4315
rwrist 1.20426
rhand -10.8746 7.4692
rfingers 7.12502
rthumb 15.1413 -21.9569
lclavicle 7.31528e-014 1.21259e-014
lhumerus 3.57066 -16.1933 75.4244
lradius 76.2858
lwrist -2.1022
lhand -27.5219 -371.77
lfingers 7.12502
lthumb -0.924123 18.2076
rfemur -59.8758 -12.6359 6.81592
rtibia 78.4864
rfoot -17.2949 17.0424
rtoes -22.049
lfemur -51.7065 12.4271 -20.7789
ltibia 86.2987
lfoot -31.1083 18.5642
ltoes -23.3461
116
root -1.31712 15.3408 18.8032 -176.895 16.0128 -543.369
lowerback 48.9632 -11.8956 6.63002
upperback 24.3987 0.570257 6.07676
thorax 6.93024 4.32423 3.91175
lowerneck 4.72342 -9.78062 13.1854
upperneck -3.94246 -11.9635 6.00647
head -2.51677 -6.37997 0.231689
rclavicle -8.5875e-014 -4.3832e-014
rhumerus 22.1022 -21.517 -65.1072
rradius 22.0239
rwrist 1.4822
rhand -10.7728 7.06335
rfingers 7.12502
rthumb 15.2393 -22.3553
lclavicle -8.5875e-014 -4.3832e-014
lhumerus 3.45989 -16.194 75.341
lradius 76.6523
lwrist -1.10406
lhand -27.8792 -371.243
lfingers 7.12502
lthumb -1.26923 18.7334
rfemur -60.7934 -12.6581 6.92317
rtibia 79.796
rfoot -17.5279 17.5871
rtoes -21.6894
lfemur -52.3744 13.0133 -20.639
ltibia 87.794
lfoot -31.5117 18.2751
ltoes -23.592
117
root -1.32039 15.2091 18.7901 -176.961 16.468 -543.308
lowerback 49.0257 -12.0415 6.94728
upperback 24.3273 0.514783 6.28629
thorax 6.85143 4.28908 4.01256
lowerneck 4.69955 -9.87951 13.4906
upperneck -3.78027 -12.1061 5.65777
head -2.50922 -6.43568 0.0773683
rclavicle -5.08889e-014 -8.13029e-014
rhumerus 22.8242 -22.62 -65.35
rradius 21.523
rwrist 2.03126
rhand -10.6117 6.78655
rfingers 7.12502
rthumb 15.3945 -22.6203
lclavicle -5.08889e-014 -8.13029e-014
lhumerus 3.24803 -16.201 75.249
lradius 77.0175
lwrist 0.105344
lhand -28.1863 -370.863
lfingers 7.12502
lthumb -1.56581 19.1106
rfemur -61.7155 -12.6743 7.02058
rtibia 81.1124
rfoot -17.8033 18.0787
rtoes -21.5279
lfemur -53.0648 13.595 -20.4839
ltibia 89.3098
lfoot -31.9093 17.8644
ltoes -23.6195
118
root -1.32389 15.077 18.7766 -177.024 16.9303 -543.195
lowerback 49.0887 -12.2004 7.30626
upperback 24.243 0.457325 6.46067
thorax 6.76165 4.26068 4.05761
lowerneck 4.67825 -9.98145 13.8438
upperneck -3.58583 -12.2486 5.3116
head -2.49581 -6.4894 -0.084308
rclavicle 1.59028e-014 -3.49861e-014
rhumerus 23.5688 -23.8472 -65.7765
rradius 20.983
rwrist 2.78265
rhand -10.3844 6.62341
rfingers 7.12502
rthumb 15.6135 -22.7665
lclavicle 1.59028e-014 -3.49861e-014
lhumerus 2.96767 -16.2306 75.087
lradius 77.3873
lwrist 1.4061
lhand -28.5319 -370.544
lfingers 7.12502
lthumb -1.8996 19.4277
rfemur -62.6279 -12.6799 7.18123
rtibia 82.417
rfoot -18.1055 18.5064
rtoes -21.6071
lfemur -53.7362 14.2108 -20.2534
ltibia 90.8326
lfoot -32.3193 17.3349
ltoes -23.4511
119
root -1.32835 14.9459 18.7632 -177.111 17.4057 -543.084
lowerback 49.1702 -12.3457 7.60875
upperback 24.1624 0.397474 6.64314
thorax 6.67233 4.22395 4.13837
lowerneck 4.73432 -10.0779 14.1399
upperneck -3.44559 -12.3693 4.97237
head -2.51105 -6.53585 -0.230221
rclavicle 9.22361e-014 1.01181e-013
rhumerus 24.3582 -25.0971 -66.2633
rradius 20.3955
rwrist 3.60409
rhand -10.0831 6.62894
rfingers 7.12502
rthumb 15.9037 -22.738
lclavicle 9.22361e-014 1.01181e-013
lhumerus 2.61343 -16.2046 74.971
lradius 77.8001
lwrist 2.77121
lhand -28.8848 -370.215
lfingers 7.12502
lthumb -2.24048 19.753
rfemur -63.5023 -12.6459 7.31674
rtibia 83.7088
rfoot -18.3391 18.9917
rtoes -21.3581
lfemur -54.377 14.8427 -20.0132
ltibia 92.3609
lfoot -32.7008 16.8036
ltoes -23.4619
120
root -1.33264 14.8122 18.749 -177.204 17.8881 -543.004
lowerback 49.2175 -12.4845 7.93414
upperback 24.0605 0.331539 6.76732
thorax 6.56559 4.18931 4.14505
lowerneck 4.79196 -10.1936 14.5655
upperneck -3.27425 -12.5062 4.60896
head -2.52964 -6.58866 -0.40331
rclavicle -2.22639e-014 2.46493e-014
rhumerus 25.0784 -26.4238 -66.8594
rradius 19.7959
rwrist 4.50386
rhand -9.77108 6.69794
rfingers 7.12502
rthumb 16.2041 -22.6448
lclavicle -2.22639e-014 2.46493e-014
lhumerus 2.17938 -16.2018 74.823
lradius 78.2223
lwrist 4.0484
lhand -29.2813 -369.871
lfingers 7.12502
lthumb -2.62337 20.0924
rfemur -64.3883 -12.6238 7.42989
rtibia 84.9991
rfoot -18.5928 19.4271
rtoes -21.1909
lfemur -55.0202 15.4937 -19.793
ltibia 93.8953
lfoot -33.0163 16.2786
ltoes -23.4807
121
root -1.33629 14.6763 18.7353 -177.308 18.3849 -542.978
lowerback 49.2342 -12.5906 8.17482
upperback 23.9936 0.268297 6.89614
thorax 6.49915 4.1484 4.19562
lowerneck 4.76387 -10.2952 14.9652
upperneck -3.07649 -12.6465 4.19964
head -2.52674 -6.6392 -0.593116
rclavicle -1.17681e-013 -1.21159e-013
rhumerus 25.7832 -27.6272 -67.3876
rradius 19.2971
rwrist 5.25156
rhand -9.40148 6.71398
rfingers 7.12502
rthumb 16.5599 -22.5994
lclavicle -1.17681e-013 -1.21159e-013
lhumerus 1.7179 -16.1005 74.721
lradius 78.6859
lwrist 5.18521
lhand -29.675 -369.447
lfingers 7.12502
lthumb -3.00358 20.5114
rfemur -65.2944 -12.5887 7.48094
rtibia 86.2854
rfoot -18.8058 19.8948
rtoes -21.0026
lfemur -55.657 16.1572 -19.615
ltibia 95.4222
lfoot -33.2692 15.8095
ltoes -23.8177
122
root -1.34062 14.5394 18.7214 -177.444 18.8815 -542.988
lowerback 49.2693 -12.6974 8.39338
upperback 23.9164 0.193428 6.99544
thorax 6.41926 4.10182 4.227
lowerneck 4.70261 -10.3933 15.335
upperneck -2.85043 -12.7892 3.83351
head -2.50377 -6.68917 -0.767781
rclavicle -1.20861e-013 -1.33484e-013
rhumerus 26.4975 -28.8233 -67.9751
rradius 18.7727
rwrist 6.08732
rhand -9.13669 6.66799
rfingers 7.12502
rthumb 16.8149 -22.6239
lclavicle -1.20861e-013 -1.33484e-013
lhumerus 1.1706 -15.9654 74.6372
lradius 79.1635
lwrist 6.19623
lhand -30.1135 -369.073
lfingers 7.12502
lthumb -3.42704 20.8792
rfemur -66.1837 -12.563 7.49435
rtibia 87.5778
rfoot -19.0598 20.3301
rtoes -20.9805
lfemur -56.2776 16.8461 -19.4666
ltibia 96.9506
lfoot -33.4399 15.3717
ltoes -24.239
123
root -1.34559 14.4032 18.707 -177.596 19.3686 -542.996
lowerback 49.2963 -12.8136 8.59444
upperback 23.8578 0.107897 7.09966
thorax 6.3617 4.0508 4.27744
lowerneck 4.53387 -10.4758 15.6171
upperneck -2.54759 -12.9414 3.49112
head -2.42751 -6.73767 -0.930065
rclavicle -3.81667e-014 1.38652e-013
rhumerus 27.2063 -29.9353 -68.5202
rradius 18.2523
rwrist 6.90977
rhand -8.93306 6.61845
rfingers 7.12502
rthumb 17.0109 -22.6567
lclavicle -3.81667e-014 1.38652e-013
lhumerus 0.572922 -15.767 74.6108
lradius 79.6425
lwrist 7.19187
lhand -30.6338 -368.816
lfingers 7.12502
lthumb -3.92956 21.1279
rfemur -67.0359 -12.551 7.50577
rtibia 88.8456
rfoot -19.2975 20.7813
rtoes -20.9423
lfemur -56.8685 17.5176 -19.2929
ltibia 98.4646
lfoot -33.5775 14.9493
ltoes -24.7562
124
root -1.3509 14.2643 18.693 -177.766 19.8486 -543.036
lowerback 49.3245 -12.9213 8.76727
upperback 23.7959 0.017171 7.18738
thorax 6.29954 3.99543 4.32337
lowerneck 4.31645 -10.5539 15.9491
upperneck -2.21132 -13.0966 3.1117
head -2.33965 -6.78492 -1.11579
rclavicle -1.43125e-013 -1.63202e-013
rhumerus 27.8515 -30.9671 -69.0438
rradius 17.7525
rwrist 7.72928
rhand -8.81555 6.57904
rfingers 7.12502
rthumb 17.124 -22.6863
lclavicle -1.43125e-013 -1.63202e-013
lhumerus -0.0637581 -15.5586 74.5712
lradius 80.1034
lwrist 8.125
lhand -31.1905 -368.691
lfingers 7.12502
lthumb -4.46711 21.2424
rfemur -67.8948 -12.541 7.47047
rtibia 90.1229
rfoot -19.4891 21.2659
rtoes -20.7322
lfemur -57.4529 18.2189 -19.1458
ltibia 99.9759
lfoot -33.6824 14.5278
ltoes -25.4352
